<svg width="1230" height="525" viewBox="0 0 1230 525" fill="none" xmlns="http://www.w3.org/2000/svg">
<path d="M433.171 494.377C466.171 494.377 474.171 524.385 506.171 524.385C516.759 524.385 524.7 521.387 531.619 517.286C542.692 510.724 551.15 501.338 563.658 496.894C568.063 495.329 572.97 494.377 578.671 494.377C580.958 494.377 583.12 494.5 585.172 494.73C614.068 497.974 621.094 522.484 648.171 523.885C649.288 523.885 650.376 523.855 651.437 523.799C683.986 522.055 689.305 494.385 724.171 494.385C738.439 494.385 748.006 501.053 757.473 508.052C768.352 515.894 779.259 524.149 796.171 523.885C829.671 522.885 837.171 494.385 867.171 494.385C900.171 494.385 909.683 524.743 940.171 523.885C975.671 522.885 978.171 494.385 1012.67 494.385C1047.17 494.385 1052.16 523.385 1085.17 523.385C1120.67 523.385 1122.17 494.386 1158.17 494.386C1187.17 494.386 1200.67 525.377 1229.67 523.877V0.876953H0.170898V494.377C29.1709 494.377 44.1709 524.597 71.1709 523.877C108.671 522.877 110.171 494.377 143.671 494.377C178.671 494.377 185.671 521.877 214.671 523.377C249.671 525.187 255.671 494.377 290.171 494.377C320.671 494.377 329.685 524.847 362.171 523.877C395.671 522.877 403.171 494.377 433.171 494.377Z" fill="#EA560E"/>
</svg>
