<svg width="513" height="467" viewBox="0 0 513 467" fill="none" xmlns="http://www.w3.org/2000/svg">
<path d="M193.967 0.193143C195.462 0.188499 196.957 0.183472 198.452 0.178098C202.474 0.165119 206.495 0.158557 210.517 0.154087C213.045 0.151131 215.574 0.147021 218.103 0.142583C226.061 0.128942 234.019 0.11926 241.978 0.115381C251.077 0.110917 260.176 0.0934357 269.275 0.0643802C276.365 0.0425478 283.455 0.0326651 290.545 0.0313397C294.753 0.0303063 298.961 0.0247211 303.168 0.00652005C322.835 -0.073728 341.972 0.560941 361.486 3.35428C362.33 3.47429 363.175 3.5943 364.045 3.71795C383.077 6.47509 401.052 12.3189 418.486 20.3543C419.142 20.6548 419.798 20.9553 420.474 21.2649C458.048 38.681 488.54 71.9525 502.974 110.72C506.081 119.431 508.603 128.297 510.486 137.354C510.654 138.08 510.822 138.805 510.995 139.553C513.209 150.515 512.814 161.668 512.821 172.8C512.828 175.097 512.835 177.394 512.842 179.691C512.854 184.5 512.857 189.31 512.856 194.119C512.856 200.206 512.883 206.292 512.918 212.379C512.94 217.127 512.944 221.875 512.943 226.623C512.945 228.863 512.954 231.102 512.97 233.341C513.082 250.985 511.881 268.616 507.372 285.753C506.586 288.945 506.226 291.622 506.198 294.89C506.185 295.902 506.172 296.914 506.158 297.957C506.152 299.028 506.147 300.099 506.142 301.202C506.127 302.331 506.113 303.461 506.097 304.625C506.051 308.222 506.017 311.819 505.986 315.417C505.652 353.278 505.652 353.278 500.861 365.854C500.601 366.556 500.342 367.257 500.074 367.98C495.166 380.801 488.345 391.905 479.486 402.354C479.043 402.877 478.601 403.399 478.145 403.937C471.894 411.217 465.155 417.561 457.486 423.354C456.439 424.155 455.392 424.955 454.314 425.78C439.05 437.21 422.185 445.406 404.486 452.354C403.755 452.643 403.024 452.931 402.271 453.229C368.244 466.353 333.344 466.593 297.486 466.354C297.486 450.514 297.486 434.674 297.486 418.354C270.426 418.354 243.365 418.354 215.485 418.354C215.485 434.194 215.485 450.034 215.485 466.354C149.429 467.031 89.3055 455.885 39.923 409.167C23.2737 391.967 8.43043 367.117 8.34365 342.511C8.33661 341.382 8.32958 340.253 8.32233 339.089C8.31817 337.88 8.314 336.671 8.30971 335.425C8.2865 332.828 8.26238 330.232 8.23745 327.636C8.2013 323.57 8.17139 319.505 8.15956 315.439C8.26433 295.718 8.26433 295.718 4.45229 276.497C-0.498555 260.403 0.306292 242.266 0.247211 225.585C0.243136 224.601 0.239066 223.616 0.234867 222.602C0.214126 217.388 0.199771 212.173 0.190327 206.958C0.181498 202.7 0.160682 198.442 0.128803 194.185C-0.211032 147.742 -0.211031 147.742 4.48549 129.354C4.79366 128.12 5.10183 126.886 5.41933 125.614C6.23269 122.704 7.14845 119.883 8.17299 117.042C8.51548 116.06 8.85797 115.079 9.21083 114.067C16.9239 92.5313 28.079 74.2273 43.4855 57.3543C44.1748 56.597 44.1748 56.597 44.8781 55.8245C82.8758 14.6691 139.754 0.233126 193.967 0.193143Z" fill="#4D4D4D"/>
<path d="M193.967 0.193143C195.462 0.188499 196.957 0.183472 198.452 0.178098C202.474 0.165119 206.495 0.158557 210.517 0.154087C213.045 0.151131 215.574 0.147021 218.103 0.142583C226.061 0.128942 234.019 0.11926 241.978 0.115381C251.077 0.110917 260.176 0.0934357 269.275 0.0643802C276.365 0.0425478 283.455 0.0326651 290.545 0.0313397C294.753 0.0303063 298.961 0.0247211 303.168 0.00652005C322.835 -0.073728 341.972 0.560941 361.486 3.35428C362.33 3.47429 363.175 3.5943 364.045 3.71795C383.077 6.47509 401.052 12.3189 418.486 20.3543C419.142 20.6548 419.798 20.9553 420.474 21.2649C458.048 38.681 488.54 71.9525 502.974 110.72C506.081 119.431 508.603 128.297 510.486 137.354C510.654 138.08 510.822 138.805 510.995 139.553C513.209 150.515 512.814 161.668 512.821 172.8C512.828 175.097 512.835 177.394 512.842 179.691C512.854 184.5 512.857 189.31 512.856 194.119C512.856 200.206 512.883 206.292 512.918 212.379C512.94 217.127 512.944 221.875 512.943 226.623C512.945 228.863 512.954 231.102 512.97 233.341C513.082 250.985 511.881 268.616 507.372 285.753C506.586 288.945 506.226 291.622 506.198 294.89C506.185 295.902 506.172 296.914 506.158 297.957C506.152 299.028 506.147 300.099 506.142 301.202C506.127 302.331 506.113 303.461 506.097 304.625C506.051 308.222 506.017 311.819 505.986 315.417C505.652 353.278 505.652 353.278 500.861 365.854C500.601 366.556 500.342 367.257 500.074 367.98C495.166 380.801 488.345 391.905 479.486 402.354C479.043 402.877 478.601 403.399 478.145 403.937C471.894 411.217 465.155 417.561 457.486 423.354C456.439 424.155 455.392 424.955 454.314 425.78C439.05 437.21 422.185 445.406 404.486 452.354C403.755 452.643 403.024 452.931 402.271 453.229C368.244 466.353 333.344 466.593 297.486 466.354C297.486 450.514 297.486 434.674 297.486 418.354C270.426 418.354 243.365 418.354 215.485 418.354C215.485 434.194 215.485 450.034 215.485 466.354C149.429 467.031 89.3055 455.885 39.923 409.167C23.2737 391.967 8.43043 367.117 8.34365 342.511C8.33661 341.382 8.32958 340.253 8.32233 339.089C8.31817 337.88 8.314 336.671 8.30971 335.425C8.2865 332.828 8.26238 330.232 8.23745 327.636C8.2013 323.57 8.17139 319.505 8.15956 315.439C8.26433 295.718 8.26433 295.718 4.45229 276.497C-0.498555 260.403 0.306292 242.266 0.247211 225.585C0.243136 224.601 0.239066 223.616 0.234867 222.602C0.214126 217.388 0.199771 212.173 0.190327 206.958C0.181498 202.7 0.160682 198.442 0.128803 194.185C-0.211032 147.742 -0.211031 147.742 4.48549 129.354C4.79366 128.12 5.10183 126.886 5.41933 125.614C6.23269 122.704 7.14845 119.883 8.17299 117.042C8.51548 116.06 8.85797 115.079 9.21083 114.067C16.9239 92.5313 28.079 74.2273 43.4855 57.3543C44.1748 56.597 44.1748 56.597 44.8781 55.8245C82.8758 14.6691 139.754 0.233126 193.967 0.193143ZM138.485 31.3543C137.284 31.6404 136.083 31.9266 134.845 32.2215C97.8776 41.9361 63.731 64.3023 44.1178 97.6819C39.0996 106.55 34.3791 115.553 31.4855 125.354C31.2809 126.028 31.0762 126.703 30.8654 127.397C30.1609 129.733 29.4758 132.073 28.798 134.417C28.4754 135.515 28.4754 135.515 28.1464 136.636C25.6976 145.43 25.336 154.281 25.3244 163.368C25.3194 164.314 25.3144 165.26 25.3093 166.235C25.2948 169.336 25.2879 172.437 25.2824 175.538C25.2795 176.608 25.2767 177.679 25.2738 178.781C25.2589 184.451 25.2496 190.12 25.2453 195.79C25.2398 201.592 25.2158 207.394 25.1873 213.197C25.1685 217.705 25.1635 222.214 25.1619 226.723C25.1589 228.859 25.151 230.995 25.1377 233.131C24.8847 276.958 39.3835 314.213 69.798 345.979C102.681 377.816 148.527 393.415 193.735 393.547C195.265 393.555 196.796 393.563 198.326 393.572C203.332 393.598 208.339 393.613 213.345 393.628C215.083 393.633 216.821 393.638 218.559 393.644C225.808 393.665 233.057 393.684 240.306 393.695C250.609 393.712 260.911 393.745 271.214 393.802C278.502 393.841 285.79 393.86 293.078 393.865C297.406 393.869 301.735 393.88 306.063 393.913C341.83 394.173 375.633 389.997 407.486 372.354C408.695 371.71 409.904 371.067 411.114 370.425C446.2 351.463 471.47 318.216 483.095 280.37C488.079 263.293 488.801 246.151 488.786 228.491C488.79 226.523 488.795 224.555 488.799 222.587C488.807 218.488 488.806 214.39 488.801 210.291C488.795 205.098 488.812 199.904 488.836 194.711C488.85 190.653 488.851 186.596 488.848 182.538C488.849 180.626 488.854 178.714 488.864 176.802C488.94 160.633 488.053 144.043 482.798 128.604C482.419 127.45 482.419 127.45 482.032 126.272C479.505 118.882 476.193 111.96 472.448 105.116C471.57 103.508 470.721 101.883 469.876 100.257C452.152 67.6604 419.634 44.7503 384.649 34.1138C382.598 33.512 380.544 32.928 378.486 32.3543C377.811 32.1659 377.137 31.9775 376.443 31.7835C365.833 28.8913 355.269 27.4111 344.314 26.5712C342.35 26.4206 340.386 26.2638 338.423 26.1021C329.995 25.4425 321.633 25.2059 313.182 25.209C311.813 25.206 310.444 25.2026 309.076 25.1988C305.399 25.1901 301.723 25.1877 298.046 25.187C295.733 25.1863 293.42 25.1842 291.108 25.1815C282.992 25.1723 274.877 25.1682 266.761 25.169C259.274 25.1696 251.786 25.1591 244.298 25.1432C237.81 25.13 231.322 25.1248 224.834 25.1254C220.986 25.1257 217.138 25.123 213.29 25.1122C188.102 25.0466 163.087 25.3797 138.485 31.3543Z" fill="#4D4D4D"/>
<path d="M214.095 25.1875C216.401 25.1867 218.708 25.1846 221.014 25.182C229.111 25.1728 237.209 25.1686 245.306 25.1694C252.771 25.17 260.236 25.1595 267.701 25.1437C274.175 25.1305 280.65 25.1252 287.124 25.1259C290.962 25.1261 294.799 25.1235 298.637 25.1127C354.276 24.9671 405.768 31.5086 447.486 71.3547C448.082 71.9 448.679 72.4453 449.294 73.0071C466.129 88.9082 477.925 111.293 484.298 133.355C484.493 134.017 484.688 134.68 484.889 135.362C488.738 149.651 488.799 164.371 488.786 179.05C488.79 181.015 488.795 182.979 488.799 184.944C488.807 189.04 488.807 193.136 488.801 197.233C488.796 202.416 488.812 207.599 488.836 212.782C488.851 216.835 488.851 220.889 488.848 224.942C488.849 226.85 488.854 228.757 488.864 230.665C489.076 275.621 474.672 314.647 443.052 346.811C405.436 383.877 355.384 394.066 304.369 393.859C300.009 393.845 295.648 393.852 291.288 393.855C283.978 393.858 276.669 393.845 269.359 393.821C260.963 393.795 252.566 393.793 244.169 393.805C236.014 393.816 227.858 393.809 219.703 393.795C216.266 393.789 212.829 393.789 209.392 393.794C175.48 393.829 175.48 393.829 159.486 390.355C157.875 390.029 156.263 389.705 154.652 389.383C112.864 381 74.4574 357.87 50.1419 322.495C42.1915 310.439 35.597 297.206 31.4857 283.355C31.1196 282.147 30.7535 280.939 30.3763 279.695C25.7054 263.33 25.1828 247.457 25.22 230.542C25.2187 228.358 25.2167 226.173 25.2142 223.988C25.2113 219.433 25.2155 214.878 25.2249 210.322C25.2363 204.523 25.2297 198.724 25.2178 192.925C25.2105 188.42 25.2129 183.916 25.218 179.412C25.2193 177.275 25.2178 175.139 25.2131 173.002C25.1874 158.044 25.3184 143.321 30.1107 128.98C30.3694 128.189 30.6281 127.398 30.8946 126.583C43.3579 89.7575 69.7337 61.0936 104.107 43.5276C123.587 33.9219 144.784 28.3754 166.405 26.5321C168.15 26.3833 169.895 26.2296 171.64 26.0747C185.767 25.0096 199.936 25.1899 214.095 25.1875ZM79.8934 97.7561C58.8173 121.691 51.9578 151.395 52.0872 182.445C52.0852 184.208 52.0823 185.971 52.0785 187.735C52.0741 191.398 52.0804 195.061 52.0945 198.724C52.1116 203.357 52.1018 207.989 52.0838 212.622C52.0728 216.254 52.0765 219.886 52.0842 223.518C52.0862 225.224 52.0839 226.929 52.0768 228.635C51.9531 266.573 63.9019 300.725 90.7357 328.042C106.896 344.018 126.756 354.877 148.486 361.355C149.477 361.652 149.477 361.652 150.488 361.955C171.238 368.017 192.402 367.67 213.81 367.656C217.059 367.655 220.309 367.66 223.558 367.665C231.243 367.676 238.927 367.676 246.612 367.67C254.468 367.664 262.324 367.677 270.18 367.698C276.988 367.716 283.796 367.722 290.605 367.718C294.643 367.717 298.681 367.719 302.719 367.733C327.645 367.813 351.921 367.366 375.486 358.355C376.181 358.092 376.876 357.829 377.593 357.558C392.695 351.719 406.467 343.214 418.486 332.355C419.437 331.498 420.388 330.64 421.368 329.757C445.789 306.955 459.509 275.265 460.661 242.025C460.94 231.631 460.916 221.232 460.877 210.835C460.86 206.218 460.87 201.601 460.887 196.984C460.898 193.36 460.895 189.737 460.887 186.113C460.885 184.413 460.887 182.713 460.895 181.014C460.945 165.477 460.195 148.962 454.236 134.417C453.931 133.638 453.627 132.86 453.313 132.057C443.841 108.425 427.578 87.3938 405.486 74.3547C404.806 73.9491 404.126 73.5436 403.426 73.1257C372.326 54.8964 338.884 52.7098 303.697 52.8833C299.279 52.9012 294.862 52.8973 290.444 52.8966C283.044 52.8984 275.644 52.9156 268.244 52.9431C259.737 52.9746 251.23 52.9851 242.723 52.9836C233.579 52.9823 224.436 52.9962 215.293 53.0145C212.692 53.0187 210.091 53.0202 207.49 53.021C203.383 53.023 199.277 53.0354 195.17 53.0553C193.679 53.0611 192.188 53.0637 190.697 53.0625C148.718 53.0419 108.885 66.458 79.8934 97.7561Z" fill="#F39830"/>
<path d="M192.129 53.1616C193.678 53.1537 195.227 53.1454 196.776 53.1369C201.832 53.1108 206.887 53.0953 211.943 53.0811C213.7 53.0757 215.457 53.0703 217.214 53.0649C224.543 53.0433 231.872 53.0246 239.201 53.0133C249.609 52.9972 260.016 52.9642 270.423 52.9069C277.791 52.8678 285.159 52.8486 292.527 52.8434C296.901 52.8398 301.274 52.8284 305.648 52.7953C351.133 52.4685 394.163 59.2042 427.861 92.3545C433.073 97.6324 437.632 102.989 441.486 109.355C442.127 110.375 442.769 111.396 443.431 112.448C456.707 134.458 460.622 156.863 460.724 182.292C460.728 183.157 460.732 184.022 460.736 184.914C460.757 189.507 460.771 194.101 460.781 198.694C460.789 202.439 460.81 206.184 460.842 209.929C461.223 255.552 455.898 292.952 423.486 327.355C422.874 328.03 422.263 328.705 421.634 329.401C408.041 343.862 389.019 353.823 370.486 360.355C369.427 360.734 368.369 361.112 367.278 361.503C345.774 368.42 322.688 367.803 300.355 367.725C296.272 367.713 292.189 367.717 288.105 367.719C281.262 367.72 274.42 367.709 267.577 367.691C259.717 367.669 251.858 367.666 243.998 367.672C236.361 367.678 228.724 367.672 221.086 367.661C217.869 367.657 214.652 367.656 211.434 367.658C171.131 367.674 171.131 367.674 152.986 362.73C152.023 362.472 151.06 362.214 150.068 361.948C140.759 359.339 132.083 355.75 123.486 351.355C122.853 351.032 122.221 350.71 121.57 350.378C92.1371 335.087 69.0989 308.689 58.5441 277.171C54.9436 264.191 52.3457 250.714 52.3244 237.22C52.3194 236.45 52.3145 235.68 52.3093 234.886C52.2948 232.358 52.2879 229.831 52.2824 227.304C52.2781 225.993 52.2781 225.993 52.2738 224.656C52.2589 220.024 52.2496 215.392 52.2453 210.761C52.2398 206.032 52.2159 201.303 52.1873 196.575C52.1685 192.891 52.1635 189.208 52.1619 185.525C52.159 183.785 52.1511 182.045 52.1378 180.305C52.0286 164.951 52.8565 149.008 58.673 134.605C58.9749 133.827 59.2768 133.05 59.5878 132.249C72.6168 99.6042 96.5484 78.2926 128.255 64.1162C130.645 63.1164 133.041 62.2119 135.486 61.3545C136.92 60.8498 136.92 60.8498 138.384 60.335C144.556 58.3004 150.722 56.8073 157.111 55.667C157.778 55.5477 158.446 55.4284 159.134 55.3054C170.095 53.469 181.04 53.1937 192.129 53.1616ZM100.091 113.335C87.1894 128.287 78.3525 147.978 78.3244 167.838C78.3194 168.681 78.3144 169.524 78.3093 170.393C78.2948 173.178 78.2879 175.964 78.2824 178.749C78.2796 179.706 78.2767 180.664 78.2738 181.65C78.2588 186.726 78.2496 191.802 78.2453 196.878C78.2398 202.081 78.2159 207.284 78.1873 212.487C78.1685 216.52 78.1635 220.554 78.1619 224.587C78.1589 226.502 78.151 228.418 78.1378 230.333C78.0435 245 79.0245 259.074 84.173 272.98C84.5543 274.027 84.5543 274.027 84.9433 275.095C89.4085 286.864 96.0474 297.013 104.486 306.355C105.256 307.208 106.027 308.061 106.821 308.94C126.075 329.191 155.789 341.528 183.599 342.459C187.444 342.513 191.289 342.536 195.134 342.547C196.612 342.555 198.089 342.564 199.567 342.572C204.403 342.598 209.239 342.614 214.075 342.628C215.753 342.633 217.43 342.639 219.107 342.644C226.1 342.666 233.092 342.684 240.085 342.696C250.033 342.712 259.982 342.745 269.931 342.802C276.963 342.841 283.995 342.86 291.028 342.866C295.207 342.869 299.387 342.881 303.567 342.914C342.708 343.207 377.519 336.904 406.486 308.792C428.125 287.172 434.798 259.717 434.821 230.058C434.828 228.095 434.835 226.133 434.842 224.171C434.854 220.072 434.857 215.974 434.856 211.876C434.856 206.667 434.883 201.459 434.918 196.25C434.94 192.201 434.944 188.151 434.943 184.102C434.945 182.183 434.954 180.265 434.97 178.347C435.162 152.242 427.708 129.157 409.208 110.073C383.263 84.1652 349.647 78.1964 314.087 78.2092C312.708 78.2062 311.33 78.2028 309.951 78.1991C306.25 78.1903 302.55 78.1879 298.849 78.1872C296.524 78.1865 294.199 78.1844 291.874 78.1818C283.727 78.1725 275.579 78.1684 267.432 78.1692C259.896 78.1698 252.361 78.1593 244.825 78.1435C238.307 78.1303 231.788 78.125 225.27 78.1257C221.398 78.1259 217.527 78.1232 213.655 78.1125C171.495 78.0038 131.252 81.1844 100.091 113.335Z" fill="#4D4D4D"/>
<path d="M199.755 78.2093C201.132 78.2063 202.508 78.2029 203.885 78.1991C207.586 78.1904 211.287 78.1879 214.988 78.1873C217.313 78.1866 219.638 78.1844 221.963 78.1818C230.112 78.1726 238.26 78.1684 246.409 78.1692C253.944 78.1698 261.478 78.1593 269.013 78.1435C275.531 78.1303 282.049 78.1251 288.567 78.1257C292.438 78.1259 296.308 78.1233 300.179 78.1125C344.106 77.9992 344.106 77.9992 365.485 84.3545C366.551 84.6639 367.617 84.9733 368.716 85.292C392.92 92.807 412.775 108.703 424.611 131.096C430.859 143.282 434.627 155.314 434.647 169.059C434.651 169.914 434.656 170.769 434.662 171.649C434.676 174.466 434.683 177.283 434.689 180.101C434.691 181.069 434.694 182.038 434.697 183.036C434.712 188.169 434.721 193.302 434.726 198.435C434.731 203.7 434.755 208.965 434.784 214.23C434.802 218.309 434.807 222.389 434.809 226.469C434.812 228.407 434.82 230.346 434.833 232.284C435.03 263.276 425.676 288.941 403.86 311.417C397.359 317.909 390.55 322.979 382.485 327.355C381.837 327.707 381.189 328.06 380.522 328.424C361.425 338.583 340.796 342.671 319.272 342.629C317.782 342.634 316.292 342.639 314.803 342.645C310.79 342.658 306.777 342.659 302.764 342.656C299.395 342.655 296.026 342.66 292.657 342.665C284.696 342.676 276.734 342.676 268.773 342.67C260.607 342.664 252.441 342.676 244.275 342.698C237.224 342.716 230.173 342.721 223.122 342.718C218.929 342.716 214.735 342.719 210.542 342.733C170.959 342.854 136.235 337.099 106.423 308.667C84.6804 286.345 78.1731 258.381 78.1495 228.241C78.143 226.299 78.1363 224.357 78.1293 222.414C78.1174 218.359 78.1136 214.304 78.1148 210.248C78.115 205.091 78.0877 199.934 78.0532 194.777C78.0308 190.77 78.0269 186.762 78.028 182.755C78.0257 180.855 78.017 178.956 78.0013 177.056C77.8026 150.409 86.5784 127.952 104.985 108.417C130.425 83.632 165.602 78.197 199.755 78.2093ZM132.485 123.355C131.702 123.973 130.918 124.592 130.11 125.23C118.821 134.688 110.654 148.569 109.294 163.454C109.214 165.692 109.192 167.923 109.195 170.163C109.188 171.005 109.181 171.847 109.175 172.714C109.156 175.478 109.152 178.243 109.149 181.007C109.143 182.95 109.136 184.893 109.129 186.837C109.117 190.907 109.114 194.978 109.115 199.049C109.115 204.22 109.088 209.39 109.053 214.56C109.031 218.577 109.027 222.593 109.028 226.609C109.026 228.512 109.017 230.416 109.001 232.319C108.837 254.37 112.704 273.999 128.424 290.351C129.764 291.699 131.124 293.028 132.485 294.355C133.142 295.02 133.798 295.685 134.474 296.37C157.006 317.793 188.559 316.835 217.562 316.758C221.396 316.75 225.229 316.757 229.062 316.762C235.489 316.767 241.916 316.76 248.343 316.746C255.719 316.729 263.094 316.735 270.469 316.751C276.866 316.765 283.262 316.767 289.659 316.759C293.451 316.754 297.244 316.753 301.036 316.763C331.897 316.834 360.446 314.952 383.79 292.187C387.582 288.203 390.617 284.033 393.485 279.355C393.933 278.709 394.38 278.063 394.841 277.398C402.089 266.091 404.563 249.918 404.662 236.761C404.669 236.037 404.676 235.312 404.682 234.565C404.702 232.185 404.714 229.805 404.724 227.425C404.728 226.603 404.732 225.781 404.736 224.934C404.757 220.577 404.771 216.22 404.781 211.862C404.792 207.41 404.826 202.959 404.866 198.507C404.892 195.042 404.9 191.578 404.904 188.113C404.909 186.475 404.92 184.836 404.939 183.198C405.151 163.451 401.627 145.176 387.585 130.445C386.232 129.068 384.859 127.71 383.485 126.355C382.865 125.736 382.245 125.117 381.606 124.48C364.522 108.672 339.98 106.2 317.856 106.209C316.393 106.206 314.93 106.203 313.467 106.199C309.514 106.19 305.561 106.188 301.608 106.187C299.131 106.187 296.653 106.184 294.175 106.182C285.507 106.173 276.839 106.168 268.171 106.169C260.131 106.17 252.09 106.159 244.05 106.143C237.116 106.13 230.182 106.125 223.249 106.126C219.121 106.126 214.994 106.123 210.867 106.113C206.977 106.103 203.087 106.103 199.197 106.11C197.783 106.111 196.369 106.109 194.955 106.103C172.577 106.012 150.522 109.115 132.485 123.355Z" fill="#F39830"/>
<path d="M176.489 132.241C177.675 132.241 177.675 132.241 178.885 132.241C181.487 132.241 184.09 132.249 186.692 132.257C188.501 132.259 190.31 132.26 192.119 132.261C196.872 132.265 201.624 132.275 206.377 132.286C212.084 132.298 217.791 132.303 223.498 132.308C232.16 132.318 240.823 132.337 249.485 132.355C249.485 145.225 249.485 158.095 249.485 171.355C246.185 172.345 239.485 174.355 239.485 174.355C239.485 174.355 234.112 177.468 231.485 179.355C230.475 180.035 229.464 180.716 228.423 181.417C220.994 187.849 217.034 197.76 216.239 207.312C215.76 219.546 219.22 230.201 227.485 239.355C234.206 245.423 240.656 247.411 249.485 250.355C249.485 263.885 249.485 277.415 249.485 291.355C232.827 291.475 232.827 291.475 225.642 291.501C220.768 291.519 215.895 291.54 211.021 291.581C207.086 291.614 203.15 291.632 199.214 291.639C197.724 291.645 196.234 291.655 194.744 291.672C176.46 291.865 160.305 288.732 146.685 275.726C142.016 270.692 138.729 266.14 137.485 259.355C138.596 259.335 139.706 259.315 140.85 259.295C144.961 259.219 149.073 259.13 153.184 259.037C154.964 258.999 156.745 258.964 158.526 258.933C161.083 258.887 163.64 258.829 166.196 258.769C166.995 258.757 167.794 258.746 168.618 258.734C173.02 258.782 173.02 258.782 176.485 256.355C176.689 253.443 176.769 250.627 176.76 247.714C176.765 246.82 176.77 245.925 176.775 245.004C176.789 242.037 176.788 239.071 176.786 236.105C176.79 234.05 176.794 231.995 176.799 229.94C176.807 225.629 176.806 221.318 176.801 217.007C176.795 211.472 176.812 205.937 176.835 200.401C176.85 196.157 176.851 191.912 176.848 187.667C176.848 185.626 176.854 183.584 176.864 181.543C176.876 178.694 176.869 175.845 176.858 172.995C176.865 172.145 176.873 171.295 176.881 170.42C176.893 167.84 176.893 167.84 176.485 164.355C172.629 161.784 169.358 162.004 164.88 161.941C163.621 161.912 163.621 161.912 162.337 161.882C159.657 161.822 156.978 161.776 154.298 161.73C152.481 161.691 150.664 161.652 148.847 161.612C144.393 161.516 139.939 161.432 135.485 161.355C138.654 150.851 143.843 143.023 153.485 137.355C161.199 133.674 167.945 132.2 176.489 132.241Z" fill="#F39830"/>
<path d="M264.485 132.354C283.929 132.194 283.929 132.194 292.288 132.159C297.967 132.135 303.646 132.107 309.325 132.053C313.909 132.009 318.493 131.985 323.077 131.975C324.817 131.968 326.556 131.953 328.295 131.932C343.23 131.752 356.767 133.303 368.192 143.944C372.228 148.286 377.485 155.243 377.485 161.354C376.314 161.374 375.143 161.394 373.937 161.414C369.602 161.49 365.267 161.579 360.933 161.672C359.055 161.71 357.177 161.745 355.299 161.776C352.603 161.822 349.908 161.88 347.212 161.94C346.369 161.952 345.526 161.963 344.658 161.975C340.095 161.896 340.095 161.896 336.485 164.354C336.276 167.23 336.192 170.01 336.195 172.887C336.188 173.77 336.181 174.654 336.174 175.563C336.155 178.492 336.152 181.421 336.149 184.351C336.143 186.381 336.136 188.411 336.129 190.441C336.117 194.701 336.114 198.96 336.115 203.22C336.115 208.686 336.088 214.151 336.053 219.617C336.031 223.811 336.027 228.005 336.028 232.199C336.026 234.215 336.017 236.23 336.001 238.246C335.982 241.061 335.987 243.876 336 246.692C335.988 247.529 335.977 248.366 335.965 249.228C335.978 253.699 335.978 253.699 338.281 257.369C341.685 258.891 345.088 258.836 348.751 258.866C349.941 258.893 349.941 258.893 351.155 258.921C353.682 258.975 356.208 259.009 358.735 259.042C360.452 259.075 362.168 259.11 363.884 259.145C368.084 259.23 372.285 259.297 376.485 259.354C370.258 272.515 362.117 281.94 348.399 287.636C337.648 291.427 327.314 291.494 316.048 291.452C314.557 291.45 313.066 291.449 311.576 291.448C307.676 291.444 303.777 291.434 299.877 291.423C295.186 291.411 290.494 291.406 285.803 291.401C278.697 291.391 271.591 291.372 264.485 291.354C264.485 277.824 264.485 264.294 264.485 250.354C268.115 249.034 271.745 247.714 275.485 246.354C286.357 239.32 293.402 230.193 296.165 217.433C297.737 207.236 295.821 196.582 289.798 188.042C288.729 186.782 287.623 185.553 286.485 184.354C285.849 183.666 285.212 182.978 284.556 182.269C278.096 175.904 273.757 174.921 264.485 171.354C264.485 158.484 264.485 145.614 264.485 132.354Z" fill="#F39830"/>
<path d="M481.485 338.354C484.129 343.642 480.033 352.665 478.263 358.124C468.982 382.812 450.624 400.659 428.485 414.354C427.815 414.774 427.145 415.193 426.455 415.625C408.993 426.401 389.473 433.021 369.485 437.354C367.83 437.764 367.83 437.764 366.142 438.183C351.556 441.659 336.446 442.715 321.485 442.354C321.485 434.434 321.485 426.514 321.485 418.354C326.343 418.014 326.343 418.014 331.298 417.667C360.395 415.257 389.323 408.559 415.485 395.354C416.222 394.986 416.958 394.618 417.716 394.239C443.156 381.325 465.33 361.869 481.485 338.354Z" fill="#F39830"/>
<path d="M31.4854 339.354C34.5721 342.248 37.1798 345.232 39.7354 348.604C67.3746 383.413 107.412 403.903 150.323 412.893C152.262 413.307 154.195 413.753 156.126 414.202C167.814 416.81 179.552 417.478 191.485 418.354C191.485 426.274 191.485 434.194 191.485 442.354C164.004 442.354 137.047 437.479 111.485 427.354C110.336 426.9 110.336 426.9 109.163 426.437C93.3329 420.063 78.3641 411.621 65.4854 400.354C64.6823 399.694 63.8792 399.034 63.0518 398.354C44.9152 382.962 34.5629 362.78 31.4854 339.354Z" fill="#F39830"/>
<path d="M269.485 187.355C275.927 191.54 280.222 196.988 282.485 204.355C283.584 212.544 282.646 219.536 278.114 226.444C273.179 232.8 266.82 236.453 258.872 237.796C250.712 238.189 244.422 235.152 238.173 230.105C231.929 224.16 230.084 219.073 229.86 210.417C229.906 203.249 231.475 198.52 236.485 193.355C237.332 192.481 237.332 192.481 238.196 191.589C247.148 183.245 258.586 181.846 269.485 187.355Z" fill="#F39830"/>
<path d="M350.485 175.354C359.725 175.354 368.965 175.354 378.485 175.354C378.485 198.124 378.485 220.894 378.485 244.354C369.245 244.354 360.005 244.354 350.485 244.354C350.485 221.584 350.485 198.814 350.485 175.354Z" fill="#F39830"/>
<path d="M134.485 176.354C143.725 176.354 152.965 176.354 162.485 176.354C162.485 199.124 162.485 221.894 162.485 245.354C153.245 245.354 144.005 245.354 134.485 245.354C134.485 222.584 134.485 199.814 134.485 176.354Z" fill="#F39830"/>
</svg>
